<svg width="198" height="26" xmlns="http://www.w3.org/2000/svg"><path fill="#fff" d="M26.592 7c-2.355 0-4.292.553-5.81 1.658-1.52 1.105-2.28 2.543-2.28 4.313h5.752c0-1.338.683-2.008 2.049-2.008 1.467 0 2.2.844 2.2 2.535v.97h-1.775c-2.822 0-4.972.508-6.45 1.524-1.48 1.016-2.22 2.517-2.22 4.504 0 1.581.609 2.894 1.827 3.938C21.102 25.478 22.58 26 24.322 26c1.9 0 3.38-.66 4.438-1.98.159.723.342 1.27.547 1.642h5.751v-.289c-.5-.891-.762-2.179-.785-3.861V13.4c-.034-1.986-.734-3.549-2.1-4.69C30.809 7.57 28.949 7 26.593 7zm.24 10.516h1.672v2.93c-.205.383-.544.728-1.016 1.033-.472.304-1.066.457-1.783.457-.546 0-.995-.161-1.348-.483-.353-.322-.529-.742-.529-1.262 0-1.783 1-2.675 3.004-2.675zm25.721.687L54.447 7h5.611l-4.43 19h-4.951l-3.11-11.274L44.44 26h-4.951l-4.43-19h5.61l1.86 11.467L45.517 7H49.6zM67.568 7.345l.192 2.19C69.062 7.845 70.858 7 73.148 7c1.964 0 3.431.58 4.402 1.741.97 1.161 1.473 2.909 1.508 5.242V26h-5.893V14.224c0-.942-.192-1.635-.575-2.078-.384-.442-1.081-.663-2.093-.663-1.15 0-2.005.448-2.563 1.345V26h-5.876V7.345zm27.375 11.582c0-.893-.316-1.588-.95-2.086-.632-.498-1.744-1.014-3.335-1.547-1.592-.533-2.893-1.048-3.903-1.547-3.287-1.61-4.93-3.823-4.93-6.639 0-1.401.41-2.638 1.228-3.71.819-1.072 1.978-1.906 3.476-2.503C88.027.298 89.71 0 91.58 0c1.823 0 3.458.324 4.904.973 1.446.65 2.57 1.573 3.371 2.772.801 1.2 1.202 2.57 1.202 4.11H94.96c0-1.03-.317-1.83-.95-2.398-.633-.567-1.49-.851-2.57-.851-1.091 0-1.954.24-2.586.721-.633.481-.95 1.092-.95 1.834 0 .649.349 1.236 1.045 1.763.697.528 1.922 1.072 3.676 1.634 1.754.562 3.194 1.167 4.32 1.816 2.741 1.576 4.112 3.749 4.112 6.518 0 2.213-.836 3.95-2.508 5.214C96.877 25.369 94.583 26 91.668 26c-2.056 0-3.917-.368-5.584-1.103-1.666-.736-2.92-1.744-3.763-3.025-.842-1.28-1.263-2.754-1.263-4.423h6.133c0 1.356.35 2.355 1.054 2.998.703.643 1.843.965 3.423.965 1.01 0 1.809-.218 2.395-.652.587-.434.88-1.045.88-1.834zM109.88 2v4.709h2.931v4.096h-2.93v8.665c0 .712.12 1.208.361 1.488.242.28.72.42 1.433.42.55 0 1.01-.034 1.383-.104v4.218a9.689 9.689 0 0 1-3.129.508c-1.91 0-3.32-.478-4.232-1.436-.91-.956-1.366-2.41-1.366-4.359v-9.4h-2.273V6.71h2.273V2zm13.712 5c-2.355 0-4.292.553-5.81 1.658-1.52 1.105-2.28 2.543-2.28 4.313h5.752c0-1.338.684-2.008 2.049-2.008 1.468 0 2.2.844 2.2 2.535v.97h-1.773c-2.822 0-4.974.508-6.453 1.524-1.48 1.016-2.219 2.517-2.219 4.504 0 1.581.61 2.894 1.827 3.938 1.218 1.044 2.696 1.566 4.437 1.566 1.9 0 3.379-.66 4.438-1.98.159.723.342 1.27.547 1.642h5.751v-.289c-.5-.891-.763-2.179-.785-3.861V13.4c-.034-1.986-.734-3.549-2.1-4.69-1.365-1.14-3.225-1.71-5.581-1.71zm.24 10.516h1.672v2.93c-.205.383-.544.728-1.016 1.033-.472.304-1.066.457-1.783.457-.546 0-.995-.161-1.348-.483-.353-.322-.529-.742-.529-1.262 0-1.783 1-2.675 3.004-2.675zm21.126-4.912l-1.856-.138c-1.772 0-2.909.575-3.41 1.724V26h-5.634V7.345h5.283l.183 2.396C140.472 7.914 141.792 7 143.487 7c.601 0 1.125.069 1.571.207zM154.88 2v4.709h2.931v4.096h-2.93v8.665c0 .712.12 1.208.361 1.488.242.28.72.42 1.433.42.55 0 1.01-.034 1.383-.104v4.218a9.689 9.689 0 0 1-3.129.508c-1.91 0-3.32-.478-4.23-1.436-.913-.956-1.368-2.41-1.368-4.359v-9.4h-2.273V6.71h2.273V2zm12.92 5c-1.811 0-3.377.393-4.697 1.178-1.32.784-2.325 1.892-3.013 3.326-.688 1.434-1.032 3.089-1.032 4.963v.472c0 2.687.861 4.87 2.584 6.547 1.723 1.677 3.98 2.514 6.764 2.514 1.488 0 2.877-.292 4.17-.873 1.292-.581 2.291-1.362 2.996-2.344l-2.584-3.082c-1.007 1.265-2.407 1.897-4.197 1.897-1.085 0-1.969-.294-2.65-.881-.684-.587-1.126-1.395-1.327-2.422h11.244v-2.219c0-2.856-.737-5.082-2.214-6.68C172.367 7.8 170.352 7 167.8 7zm-.03 4.402c.893 0 1.58.252 2.062.754.48.503.711 1.21.69 2.125v.442h-5.708c.313-2.213 1.3-3.32 2.955-3.32zm22.188 1.202l-1.856-.138c-1.772 0-2.909.575-3.41 1.724V26h-5.634V7.345h5.283l.183 2.396C185.472 7.914 186.792 7 188.487 7c.601 0 1.125.069 1.571.207zM194.995 2a2.984 2.984 0 0 0-3.01 2.982A2.99 2.99 0 0 0 194.995 8c1.691 0 2.99-1.327 2.99-3.018A2.957 2.957 0 0 0 194.995 2zm0 .6c1.3 0 2.242 1.073 2.242 2.4 0 1.31-.942 2.363-2.224 2.363-1.318 0-2.28-1.053-2.28-2.38 0-1.31.962-2.383 2.262-2.383z"/><path fill="#fff" d="M194.888 3.473a5.57 5.57 0 0 0-1.033.091v2.98h.677V5.347h.319c.374 0 .553.145.607.472.09.346.142.618.23.727h.731c-.071-.11-.124-.29-.213-.744-.089-.4-.251-.62-.535-.729v-.035c.355-.109.605-.364.605-.691a.837.837 0 0 0-.285-.655c-.214-.127-.463-.218-1.015-.218h-.088zm.035.49c.427 0 .623.182.623.455 0 .31-.302.437-.676.437h-.32V4c.07-.018.195-.037.373-.037zM.058 2v24h16v-4.45H5.896V2z"/></svg>