<svg height="108" viewBox="0 0 345 108" width="345" xmlns="http://www.w3.org/2000/svg"><path d="m91.2 58c-1.4 0-2.6 1.1-2.6 2.5v27.8c0 1.4 1.2 2.6 2.6 2.6s2.5-1.2 2.5-2.6v-27.8c0-1.4-1.1-2.5-2.5-2.5z" fill="#0096d6"/><path d="m133.5 43.8v30.6c0 4.7-1.7 8.7-5.1 12q-5 4.9-12.2 4.9c-4.7 0-8.8-1.7-12.2-4.9-3.4-3.3-5.1-7.4-5.1-12.1 0-4.6 1.7-8.7 5.1-11.9 3.4-3.3 7.5-4.9 12.2-4.9 4.8 0 9 1.6 12.2 5.1q0 .1 0 .1v-18.9c0-1.4 1.2-2.6 2.6-2.6s2.5 1.2 2.5 2.6zm-8.6 39c2.4-2.4 3.5-5.2 3.5-8.5s-1.1-6.1-3.5-8.4c-2.4-2.4-5.2-3.6-8.7-3.6-3.4 0-6.2 1.2-8.6 3.6-2.4 2.3-3.6 5.1-3.6 8.4 0 3.4 1.2 6.2 3.6 8.5q3.6 3.5 8.6 3.5c3.4 0 6.3-1.1 8.7-3.5z" fill="#0096d6" fill-rule="evenodd"/><path d="m172.7 74.3c0 4.7-1.7 8.7-5.1 12-3.4 3.2-7.5 4.9-12.2 4.9-4.8 0-9-1.7-12.2-5.2q0 0 0 0v18.9c0 1.4-1.2 2.5-2.6 2.5s-2.5-1.1-2.5-2.5v-30.6c0-4.7 1.7-8.8 5.1-12q5-4.9 12.2-4.9c4.7 0 8.8 1.6 12.2 4.9 3.4 3.2 5.1 7.3 5.1 12zm-8.7 8.5c2.4-2.4 3.6-5.1 3.6-8.5 0-3.3-1.2-6.1-3.6-8.4q-3.6-3.6-8.7-3.6c-3.4 0-6.2 1.2-8.6 3.6-2.4 2.3-3.5 5.1-3.5 8.4 0 3.4 1.1 6.1 3.5 8.5s5.2 3.5 8.7 3.5c3.4 0 6.2-1.1 8.6-3.5z" fill="#006592" fill-rule="evenodd"/><path d="m83.2 74.4v13.9c0 1.4-1.1 2.6-2.5 2.6s-2.6-1.2-2.6-2.6v-2.2q0 0 0 0c-3.2 3.5-7.4 5.2-12.2 5.2-4.7 0-8.8-1.7-12.2-4.9q-5.1-4.9-5.1-12c0-4.7 1.7-8.8 5.1-12 3.3-3.3 7.5-4.9 12.2-4.9 4.8 0 8.8 1.6 12.2 4.9 3.4 3.2 5.1 7.3 5.1 12zm-8.7 8.5c2.4-2.4 3.6-5.1 3.6-8.5 0-3.3-1.2-6.1-3.6-8.5-2.4-2.3-5.2-3.5-8.6-3.5s-6.3 1.2-8.7 3.5c-2.4 2.4-3.5 5.2-3.5 8.5s1.1 6.1 3.5 8.5 5.3 3.5 8.7 3.5 6.2-1.1 8.6-3.5z" fill="#0096d6" fill-rule="evenodd"/><path d="m40.1 60.7c-2.3-1.9-5.1-2.9-8.3-2.9q-4.8 0-8.1 2.9c-.6.4-1 .9-1.4 1.3q-.6-.6-1.4-1.3c-2.2-1.9-5-2.9-8.2-2.9q-4.9 0-8.2 2.9c-2.6 2.1-3.9 5-3.9 8.6v18.9c0 1.4 1.2 2.6 2.6 2.6s2.5-1.2 2.5-2.6v-18.9q0-3 2.1-4.7c1.4-1.2 3-1.7 5-1.7 1.9 0 3.5.5 4.9 1.7 1.4 1.1 2.1 2.7 2.1 4.7v18.9c0 1.4 1.1 2.6 2.5 2.6s2.6-1.2 2.6-2.6v-18.9q0-3 2.1-4.7c1.3-1.2 3-1.7 4.9-1.7 2 0 3.6.5 5 1.7 1.4 1.1 2.1 2.7 2.1 4.7v18.9c0 1.4 1.1 2.6 2.5 2.6s2.6-1.2 2.6-2.6v-18.9c0-3.5-1.4-6.4-3.9-8.6z" fill="#0096d6"/><path d="m194.3 58.3s-2.2-.6-4.5-.6c-3.2-.1-5.9.9-8.1 2.8-2.6 2.2-3.9 5.1-3.9 8.7v18.9c0 1.4 1.1 2.5 2.5 2.5s2.6-1.1 2.6-2.5v-18.9q0-3 2-4.7c1.4-1.2 3-1.7 5-1.7.6 0 1.3.1 2 .2l1.4.3c1.4.3 2.7-.6 3-2s-.6-2.7-2-3z" fill="#006592"/><path d="m94.4 51.3c0 1.8-1.5 3.2-3.2 3.2-1.8 0-3.2-1.4-3.2-3.2 0-1.7 1.4-3.2 3.2-3.2s3.2 1.5 3.2 3.2z" fill="#0096d6"/><path d="m213 91c-4.7 0-8.8-1.6-12.2-4.9-3.4-3.2-5.1-7.3-5.1-12q0-7.1 5.1-12c3.4-3.2 7.5-4.9 12.2-4.9q7.2.1 12.2 4.9c3.4 3.3 5.1 7.3 5.1 12s-1.7 8.8-5.1 12c-3.4 3.3-7.5 4.9-12.2 4.9zm0-28.9q0 0 0 0zm-8.6 3.5c-2.4 2.4-3.6 5.2-3.6 8.5s1.2 6.1 3.6 8.5 5.2 3.5 8.6 3.5c3.5 0 6.3-1.2 8.7-3.5 2.4-2.4 3.5-5.1 3.5-8.5s-1.2-6.1-3.6-8.5c-2.4-2.3-5.2-3.5-8.6-3.5s-6.2 1.2-8.6 3.5z" fill="#006592" fill-rule="evenodd"/><path d="m286.6 39q-2.6 1.7-4.8 3.8c-4.2-8.3-13.3-13.4-23-11.9-12 1.8-20.2 13-18.3 25 1.8 11.9 13 20.1 25 18.3q2.4-.4 4.6-1.2.1 1.3.3 2.6.2 1.7.6 3.4-2.2.7-4.6 1.1c-15.2 2.4-29.5-8.1-31.8-23.3-2.4-15.2 8-29.5 23.3-31.8 11.8-1.9 23.1 4.1 28.7 14z" fill="#0096d6"/><path d="m270.4 76.1c11.2-3.9 18.3-15.3 16.4-27.4-.4-2.8-1.4-5.5-2.6-7.9q2.3-1.9 4.9-3.3c1.8 3.1 3 6.6 3.6 10.3 2.3 15.1-6.7 29.4-20.8 34.1q-1-2.8-1.5-5.8z" fill="#0096d6"/><g fill-rule="evenodd"><path d="m344.4 64.1c3.2 20.7-11 40.1-31.7 43.3s-40.1-11-43.3-31.7 11-40 31.7-43.2c20.7-3.3 40.1 10.9 43.3 31.6zm-73 11.3c3 19.6 21.4 33.1 41 30 19.6-3 33.1-21.4 30-41-3-19.6-21.4-33-41-30-19.6 3.1-33 21.4-30 41z" fill="#006592"/><path d="m292.5 25.7c-6.8 1-13.1-3.7-14.2-10.5-1-6.8 3.6-13.1 10.4-14.2 6.8-1 13.2 3.6 14.2 10.4 1.1 6.8-3.6 13.2-10.4 14.3zm-3.3-21.7c-5.2.8-8.7 5.6-7.9 10.8s5.6 8.7 10.8 7.9c5.1-.8 8.7-5.6 7.9-10.8s-5.6-8.7-10.8-7.9z" fill="#006592"/><path d="m238.4 83.8c0-.1.1-.2.2-.2h1.9q.8.1 1.3.5.4.4.4 1c0 .8-.4 1.3-1 1.5l1.1 1.6h-1.2l-1-1.4h-.8v1.4h-.9zm.9 2.1h1.1c.5 0 .7-.3.7-.7s-.3-.7-.8-.7h-1z" fill="#006592"/><path d="m244.9 86c0 2.6-2.1 4.7-4.8 4.7-2.6 0-4.8-2.1-4.8-4.7 0-2.7 2.2-4.8 4.8-4.8 2.7 0 4.8 2.1 4.8 4.8zm-8.8 0c0 2.2 1.8 4 4 4 2.3 0 4.1-1.8 4.1-4 0-2.3-1.8-4.1-4.1-4.1-2.2 0-4 1.8-4 4.1z" fill="#006592"/></g></svg>