<svg id="Layer_1" data-name="Layer 1" xmlns="http://www.w3.org/2000/svg" viewBox="0 0 425.81 211.74"><defs><style>.cls-1{fill:#ff8800;stroke:#000;stroke-miterlimit:10;}</style></defs><title>wmr</title><path class="cls-1" d="M370.23,481.68a35.53,35.53,0,0,1-20.38-8.19c-20.09-16.67-35.74-53.69-59.37-91.41-1.48-2.34-3-5.26-1.48-7,14.77-5.85,36.92-21.06,36.92-48.84,0-20.47-10.34-33.63-24.52-40.95-13.59-7.31-31-8.77-49.33-8.77-23.2,0-40.89.57-55.52,1.54-.2-.28-18.13.22-29.05.22-11.52,0-21-.31-31.31-.93a2.74,2.74,0,0,0-.5.35c-1.85,1.56-1.73,5.42-.09,7.42h.12l7.56.92c5.32.62,9.75,2.49,9.75,4,0,2.18-1.77,6.22-4.14,10.26-5.32,9.32-31.9,53.46-39.58,63.4-6.52-8.58-28.79-42.9-31.05-46.42-4.06,6.73-26.35,42.34-29.5,46.42-10.63-14-28.06-42-37.81-56.88-5.91-9-8.86-14.3-8.86-17.09,0-1.86,3.54-3.73,8.86-4l8.27-.62c1.62-2,1.51-6.05-.11-7.45a2,2,0,0,0-.48-.32c-.9.07-7.44.25-7.59.42-7.82.34-17.28.51-25.79.51-10.63,0-20.38-.31-34.26-.93-1.77.93-2.07,5.9-.59,7.77l9.45,2.18c10.34,2.49,16,8.7,25.7,23.31l43.88,64.19H-49.89v9.41H33.05c.22-.39.35.09.35.37,0,.93-.59,3.11-2.66,6.22C14.5,415.64-5.88,443-9.43,448c-8.86,12.43-19.2,25.8-35.15,27.66l-7.38.93c-2.07,1.87-1.77,6.53.89,7.77,9.45-.62,20.38-.93,30.42-.93,9.43,0,31.59.91,31.9.93l.11-.11c1.68-1.64,2.2-5.83.18-7.66L10,476.38l-6.44-.75c-5.91-.62-8.57-2.18-8.57-4,0-2.18,1.48-5.59,3.84-9.95,11.81-21.76,33.67-55.63,41.65-66.2,7.23,9.86,28.56,41.83,30.93,45.42,4.5-7.45,26.23-40.92,29.62-45.42,13,17.72,29.54,43.51,42.24,62.47,5.91,8.7,6.5,11.81,6.5,13.67,0,2.18-3.25,3.42-10,4l-8.57.93c-1.34,1.69-1.21,5.16.15,7.18a4.34,4.34,0,0,0,.44.59c2.13-.12,4.4-.24,6.78-.34,2.6.1,8.43-.06,8.62-.3,7.31-.2,15.15-.3,22.7-.3,4.31,0,46.25.63,50.9.63,11.81,0,21.86.29,35.15.88,1.77-.88,2.36-5.85.59-7.31l-6.2-.88c-17.13-2.34-17.72-5.85-17.72-36.56V389.68c0-6.14.59-6.43,13.88-6.43,11.81,0,16.54,2.93,21,9.36,9.16,13.16,21.27,47,28.95,57.78,21,29.54,36,36.85,61.14,36.85,5.61,0,10.34-.58,13-1.46C372,484.61,371.7,482.27,370.23,481.68ZM119.36,367.16c14.18-20.82,26.88-39.47,38.4-55,10.93-14.59,20.66-23.58,29-25.89l8.65,1.07c12.11,1.46,13,6.43,13,34.22v53.24H117.54c-1,0-1.13-1.12-1.13-1.72C116.4,372.13,117.58,370,119.36,367.16Zm-63.51,5.9c0-.93,1.18-3.11,3-5.9q6.49-9.54,12.58-18.44L90,374.78H57C56,374.76,55.85,373.66,55.85,373.06ZM91.3,390.78c-4,6.18-8.32,12.5-12.55,18.61L61.07,383.19H93.6a4.67,4.67,0,0,1,.35,1.37C94,385.49,93.36,387.67,91.3,390.78Zm117.07,49.38c0,26.26-.44,32.84-11.28,35.47h0c-9.16-.93-16.84-5.91-26.88-20.51l-48.53-70.93h86.74Zm75.91-73.28c-8.57,6.43-19.79,7.6-30.42,7.6-15.06,0-19.49-.59-20.38-1.46-.89-1.17-.89-4.39-.89-9.65V294.93c0-8.19.89-9.36,19.2-9.36,32.79,0,47.26,21.93,47.26,45C299,350.49,292.25,360.73,284.27,366.87Z" transform="translate(53.82 -276)"/></svg>